<svg width="15" height="15" viewBox="0 0 15 15" fill="none" xmlns="http://www.w3.org/2000/svg">
<path d="M12.0375 6.06L12.9031 11.685C12.9305 11.863 12.919 12.0449 12.8696 12.2181C12.8202 12.3913 12.7339 12.5518 12.6166 12.6885C12.4994 12.8253 12.354 12.9351 12.1904 13.0104C12.0268 13.0858 11.8488 13.1248 11.6687 13.125H3.3312C3.15097 13.125 2.97287 13.0861 2.80911 13.0108C2.64534 12.9356 2.49979 12.8258 2.38242 12.689C2.26505 12.5522 2.17866 12.3917 2.12914 12.2184C2.07963 12.0451 2.06818 11.8631 2.09558 11.685L2.9612 6.06C3.00661 5.76474 3.15625 5.49551 3.38303 5.30106C3.60981 5.10662 3.89873 4.99982 4.19745 5H10.8025C11.1011 4.99996 11.3898 5.10683 11.6165 5.30127C11.8431 5.4957 11.9927 5.76485 12.0381 6.06H12.0375Z" stroke="black" stroke-width="1.5" stroke-linecap="round" stroke-linejoin="round"/>
<path d="M8.75 3.125C8.75 2.79348 8.6183 2.47554 8.38388 2.24112C8.14946 2.0067 7.83152 1.875 7.5 1.875C7.16848 1.875 6.85054 2.0067 6.61612 2.24112C6.3817 2.47554 6.25 2.79348 6.25 3.125" stroke="black" stroke-width="1.5" stroke-linecap="round" stroke-linejoin="round"/>
</svg>
