<svg width="20" height="20" viewBox="0 0 20 20" fill="none" xmlns="http://www.w3.org/2000/svg">
<g clip-path="url(#clip0_1_1104)">
<path d="M12.9999 10.0001C12.9999 10.7958 12.6838 11.5589 12.1212 12.1215C11.5586 12.6841 10.7956 13.0001 9.9999 13.0001C9.20425 13.0001 8.44119 12.6841 7.87858 12.1215C7.31597 11.5589 6.9999 10.7958 6.9999 10.0001C6.9999 9.82915 7.0179 9.66215 7.0489 9.50015H5.9999V13.4971C5.9999 13.7751 6.2249 14.0001 6.5029 14.0001H13.4979C13.6311 13.9999 13.7588 13.9468 13.8529 13.8525C13.947 13.7582 13.9999 13.6304 13.9999 13.4971V9.50015H12.9509C12.9819 9.66215 12.9999 9.82915 12.9999 10.0001ZM9.9999 12.0001C10.2626 12.0001 10.5227 11.9483 10.7654 11.8477C11.0081 11.7471 11.2286 11.5997 11.4143 11.4139C11.6 11.228 11.7473 11.0075 11.8478 10.7647C11.9483 10.522 12 10.2619 11.9999 9.99915C11.9998 9.73644 11.948 9.47631 11.8474 9.23363C11.7468 8.99094 11.5994 8.77044 11.4136 8.58473C11.2278 8.39901 11.0072 8.25171 10.7645 8.15123C10.5218 8.05076 10.2616 7.99908 9.9989 7.99915C9.46834 7.99928 8.95955 8.21017 8.58448 8.58543C8.20941 8.96069 7.99877 9.46958 7.9989 10.0001C7.99903 10.5307 8.20993 11.0395 8.58519 11.4146C8.96045 11.7896 9.46934 12.0003 9.9999 12.0001ZM12.3999 7.90015H13.5989C13.6786 7.90015 13.755 7.86857 13.8114 7.81234C13.8678 7.75611 13.8996 7.6798 13.8999 7.60015V6.40115C13.8999 6.32132 13.8682 6.24476 13.8117 6.18831C13.7553 6.13186 13.6787 6.10015 13.5989 6.10015H12.3999C12.3201 6.10015 12.2435 6.13186 12.1871 6.18831C12.1306 6.24476 12.0989 6.32132 12.0989 6.40115V7.60015C12.0999 7.76515 12.2349 7.90015 12.3999 7.90015ZM9.9999 0.400146C7.45382 0.400146 5.01203 1.41157 3.21168 3.21192C1.41133 5.01227 0.399902 7.45407 0.399902 10.0001C0.399902 12.5462 1.41133 14.988 3.21168 16.7884C5.01203 18.5887 7.45382 19.6001 9.9999 19.6001C11.2606 19.6001 12.5089 19.3518 13.6737 18.8694C14.8384 18.3869 15.8967 17.6798 16.7881 16.7884C17.6796 15.8969 18.3867 14.8386 18.8691 13.6739C19.3516 12.5092 19.5999 11.2608 19.5999 10.0001C19.5999 8.73946 19.3516 7.49111 18.8691 6.32639C18.3867 5.16166 17.6796 4.10336 16.7881 3.21192C15.8967 2.32048 14.8384 1.61335 13.6737 1.1309C12.5089 0.648458 11.2606 0.400146 9.9999 0.400146ZM14.9999 13.8891C14.9999 14.5001 14.4999 15.0001 13.8889 15.0001H6.1109C5.4999 15.0001 4.9999 14.5001 4.9999 13.8891V6.11115C4.9999 5.50015 5.4999 5.00015 6.1109 5.00015H13.8889C14.4999 5.00015 14.9999 5.50015 14.9999 6.11115V13.8891Z" fill="black"/>
</g>
<defs>
<clipPath id="clip0_1_1104">
<rect width="20" height="20" fill="white"/>
</clipPath>
</defs>
</svg>
