<svg width="15" height="15" viewBox="0 0 15 15" fill="none" xmlns="http://www.w3.org/2000/svg">
<path d="M13.5205 4.15431C13.3242 3.69967 13.041 3.28769 12.687 2.94142C12.3327 2.59411 11.915 2.31811 11.4565 2.12843C10.9812 1.93096 10.4713 1.82988 9.95654 1.83106C9.23438 1.83106 8.52979 2.02882 7.91748 2.40235C7.771 2.49171 7.63184 2.58985 7.5 2.69679C7.36816 2.58985 7.229 2.49171 7.08252 2.40235C6.47022 2.02882 5.76562 1.83106 5.04346 1.83106C4.52344 1.83106 4.01953 1.93067 3.54346 2.12843C3.0835 2.31886 2.66895 2.59278 2.31299 2.94142C1.95849 3.2873 1.67531 3.69938 1.47949 4.15431C1.27588 4.62745 1.17188 5.12989 1.17188 5.64698C1.17188 6.13478 1.27148 6.64308 1.46924 7.16017C1.63477 7.5923 1.87207 8.04054 2.17529 8.49317C2.65576 9.20948 3.31641 9.95655 4.13672 10.7139C5.49609 11.9692 6.84229 12.8364 6.89941 12.8716L7.24658 13.0942C7.40039 13.1924 7.59815 13.1924 7.75195 13.0942L8.09912 12.8716C8.15625 12.835 9.50098 11.9692 10.8618 10.7139C11.6821 9.95655 12.3428 9.20948 12.8232 8.49317C13.1265 8.04054 13.3652 7.5923 13.5293 7.16017C13.7271 6.64308 13.8267 6.13478 13.8267 5.64698C13.8281 5.12989 13.7241 4.62745 13.5205 4.15431ZM7.5 11.9356C7.5 11.9356 2.28516 8.59425 2.28516 5.64698C2.28516 4.15431 3.52002 2.94435 5.04346 2.94435C6.11426 2.94435 7.04297 3.542 7.5 4.41505C7.95703 3.542 8.88574 2.94435 9.95654 2.94435C11.48 2.94435 12.7148 4.15431 12.7148 5.64698C12.7148 8.59425 7.5 11.9356 7.5 11.9356Z" fill="black"/>
</svg>
