<svg width="18" height="18" viewBox="0 0 18 18" fill="none" xmlns="http://www.w3.org/2000/svg">
<path d="M9 0.25C4.16797 0.25 0.25 4.16797 0.25 9C0.25 13.832 4.16797 17.75 9 17.75C13.832 17.75 17.75 13.832 17.75 9C17.75 4.16797 13.832 0.25 9 0.25ZM13.2051 6.8457C13.2109 6.9375 13.2109 7.0332 13.2109 7.12695C13.2109 9.99414 11.0273 13.2969 7.03711 13.2969C5.80664 13.2969 4.66602 12.9395 3.70508 12.3242C3.88086 12.3438 4.04883 12.3516 4.22852 12.3516C5.24414 12.3516 6.17773 12.0078 6.92188 11.4258C5.96875 11.4062 5.16797 10.7812 4.89453 9.92188C5.22852 9.9707 5.5293 9.9707 5.87305 9.88281C5.38228 9.78311 4.94116 9.51657 4.62464 9.12848C4.30812 8.7404 4.13572 8.2547 4.13672 7.75391V7.72656C4.42383 7.88867 4.76172 7.98828 5.11523 8.00195C4.81805 7.8039 4.57433 7.53557 4.40569 7.22076C4.23704 6.90596 4.14868 6.5544 4.14844 6.19727C4.14844 5.79297 4.25391 5.42383 4.44336 5.10352C4.98809 5.77409 5.66783 6.32254 6.43841 6.71321C7.20898 7.10389 8.05314 7.32803 8.91602 7.37109C8.60938 5.89648 9.71094 4.70312 11.0352 4.70312C11.6602 4.70312 12.2227 4.96484 12.6191 5.38672C13.1094 5.29492 13.5781 5.11133 13.9961 4.86523C13.834 5.36719 13.4941 5.79102 13.043 6.05859C13.4805 6.01172 13.9023 5.89062 14.293 5.7207C13.998 6.1543 13.6289 6.53906 13.2051 6.8457Z" fill="black"/>
</svg>
