<svg width="20" height="20" viewBox="0 0 20 20" fill="none" xmlns="http://www.w3.org/2000/svg">
<g clip-path="url(#clip0_1_1106)">
<path d="M11.6029 9.83315L9.3569 8.78515C9.1609 8.69415 8.9999 8.79615 8.9999 9.01315V10.9871C8.9999 11.2041 9.1609 11.3061 9.3569 11.2151L11.6019 10.1671C11.7989 10.0751 11.7989 9.92515 11.6029 9.83315ZM9.9999 0.400146C4.6979 0.400146 0.399902 4.69815 0.399902 10.0001C0.399902 15.3021 4.6979 19.6001 9.9999 19.6001C15.3019 19.6001 19.5999 15.3021 19.5999 10.0001C19.5999 4.69815 15.3019 0.400146 9.9999 0.400146ZM9.9999 13.9001C5.0859 13.9001 4.9999 13.4571 4.9999 10.0001C4.9999 6.54315 5.0859 6.10015 9.9999 6.10015C14.9139 6.10015 14.9999 6.54315 14.9999 10.0001C14.9999 13.4571 14.9139 13.9001 9.9999 13.9001Z" fill="black"/>
</g>
<defs>
<clipPath id="clip0_1_1106">
<rect width="20" height="20" fill="white"/>
</clipPath>
</defs>
</svg>
